<svg width="1123" height="776" viewBox="0 0 1123 776" fill="none" xmlns="http://www.w3.org/2000/svg">
    <g filter="url(#filter0_d_690_1935)">
        <a>
            <rect x="10.5065" y="5.50655" width="347.186" height="317.522" fill="#9197BC"
                stroke="black"
                stroke-width="10.9869" />
            <path
                d="M139.776 161.878H143.296V170.278H144.096L151.376 161.878H155.656L147.216 170.598C148.736 170.758 150.003 171.331 151.016 172.318C152.056 173.304 152.976 174.704 153.776 176.518C154.843 179.158 155.523 180.731 155.816 181.238H152.136C151.736 180.571 151.136 179.251 150.336 177.278C149.669 175.678 148.843 174.518 147.856 173.798C146.869 173.078 145.576 172.718 143.976 172.718H143.296V181.238H139.776V161.878ZM157.197 169.158H167.077V171.718H157.197V169.158ZM186.662 181.238H170.062V179.078L172.822 176.398C176.449 172.958 178.969 170.291 180.382 168.398C181.796 166.504 182.502 164.638 182.502 162.798C182.502 161.304 182.102 160.091 181.302 159.158C180.502 158.198 179.196 157.718 177.382 157.718C175.462 157.718 173.622 158.451 171.862 159.918L170.742 157.438C172.822 155.678 175.276 154.798 178.102 154.798C180.689 154.798 182.649 155.544 183.982 157.038C185.342 158.531 186.022 160.304 186.022 162.358C186.022 164.571 185.316 166.704 183.902 168.758C182.489 170.784 180.209 173.304 177.062 176.318L175.022 178.238V178.318H186.662V181.238ZM198.21 181.238V158.518H198.13L193.61 160.958L192.93 158.278L198.61 155.238H201.61V181.238H198.21ZM218.718 181.238V158.518H218.638L214.118 160.958L213.438 158.278L219.118 155.238H222.118V181.238H218.718Z"
                fill="white" />
        </a>
        <a>
            <rect x="10.5065" y="312.041" width="242.811" height="449.365" fill="#BCB791"
                stroke="black"
                stroke-width="10.9869" />
            <path
                d="M82.6439 534.334H86.1639V542.734H86.9639L94.2439 534.334H98.5239L90.0839 543.054C91.6039 543.214 92.8705 543.787 93.8839 544.774C94.9239 545.76 95.8439 547.16 96.6439 548.974C97.7105 551.614 98.3905 553.187 98.6839 553.694H95.0039C94.6039 553.027 94.0039 551.707 93.2039 549.734C92.5372 548.134 91.7105 546.974 90.7239 546.254C89.7372 545.534 88.4439 545.174 86.8439 545.174H86.1639V553.694H82.6439V534.334ZM100.065 541.614H109.945V544.174H100.065V541.614ZM129.53 553.694H112.93V551.534L115.69 548.854C119.317 545.414 121.837 542.747 123.25 540.854C124.663 538.96 125.37 537.094 125.37 535.254C125.37 533.76 124.97 532.547 124.17 531.614C123.37 530.654 122.063 530.174 120.25 530.174C118.33 530.174 116.49 530.907 114.73 532.374L113.61 529.894C115.69 528.134 118.143 527.254 120.97 527.254C123.557 527.254 125.517 528 126.85 529.494C128.21 530.987 128.89 532.76 128.89 534.814C128.89 537.027 128.183 539.16 126.77 541.214C125.357 543.24 123.077 545.76 119.93 548.774L117.89 550.694V550.774H129.53V553.694ZM141.078 553.694V530.974H140.998L136.478 533.414L135.798 530.734L141.478 527.694H144.478V553.694H141.078ZM169.466 527.694V530.654H159.546L158.546 537.334C159.346 537.227 160.052 537.174 160.666 537.174C162.852 537.174 164.719 537.64 166.266 538.574C167.359 539.187 168.252 540.067 168.946 541.214C169.639 542.36 169.986 543.707 169.986 545.254C169.986 547.814 169.066 549.934 167.226 551.614C165.412 553.294 163.106 554.134 160.306 554.134C157.692 554.134 155.532 553.6 153.826 552.534L154.706 549.854C156.332 550.814 158.199 551.294 160.306 551.294C162.012 551.294 163.466 550.774 164.666 549.734C165.866 548.694 166.452 547.32 166.426 545.614C166.426 543.88 165.799 542.494 164.546 541.454C163.319 540.414 161.466 539.894 158.986 539.894C157.679 539.894 156.466 539.987 155.346 540.174L157.026 527.694H169.466Z"
                fill="white" />
            <mask id="path-4-outside-1_690_1935" maskUnits="userSpaceOnUse" x="147" y="307"
                width="232"
                height="180" fill="black">
                <rect fill="white" x="147" y="307" width="232" height="180" />
                <path d="M147 318H379V487H147V318Z" />
            </mask>
            <path d="M147 318H379V487H147V318Z" fill="#BCB791" />
            <path d="M147 328.987H379V307.013H147V328.987Z" fill="black"
                mask="url(#path-4-outside-1_690_1935)" />
        </a>
        <a>
            <rect x="242.507" y="486.507" width="309.987" height="274.987" fill="#A7BC91"
                stroke="black"
                stroke-width="10.9869" />
            <path
                d="M347.428 615.637H350.948V624.037H351.748L359.028 615.637H363.308L354.868 624.357C356.388 624.517 357.655 625.09 358.668 626.077C359.708 627.063 360.628 628.463 361.428 630.277C362.495 632.917 363.175 634.49 363.468 634.997H359.788C359.388 634.33 358.788 633.01 357.988 631.037C357.322 629.437 356.495 628.277 355.508 627.557C354.522 626.837 353.228 626.477 351.628 626.477H350.948V634.997H347.428V615.637ZM364.849 622.917H374.729V625.477H364.849V622.917ZM394.315 634.997H377.715V632.837L380.475 630.157C384.101 626.717 386.621 624.05 388.035 622.157C389.448 620.263 390.155 618.397 390.155 616.557C390.155 615.063 389.755 613.85 388.955 612.917C388.155 611.957 386.848 611.477 385.035 611.477C383.115 611.477 381.275 612.21 379.515 613.677L378.395 611.197C380.475 609.437 382.928 608.557 385.755 608.557C388.341 608.557 390.301 609.303 391.635 610.797C392.995 612.29 393.675 614.063 393.675 616.117C393.675 618.33 392.968 620.463 391.555 622.517C390.141 624.543 387.861 627.063 384.715 630.077L382.675 631.997V632.077H394.315V634.997ZM405.862 634.997V612.277H405.782L401.262 614.717L400.582 612.037L406.262 608.997H409.262V634.997H405.862ZM432.93 634.997H429.61V627.877H417.53V625.597L429.13 608.997H432.93V625.157H436.57V627.877H432.93V634.997ZM421.09 625.157H429.61V616.477C429.61 615.117 429.65 613.757 429.73 612.397H429.61C428.917 613.703 428.197 614.983 427.45 616.237L421.09 625.077V625.157Z"
                fill="white" />
        </a>
        <a>
            <rect x="541.174" y="475.746" width="571.319" height="285.66" fill="#BC91B3"
                stroke="black"
                stroke-width="10.9869" />
            <path
                d="M777.017 615.637H780.537V624.037H781.337L788.617 615.637H792.897L784.457 624.357C785.977 624.517 787.243 625.09 788.257 626.077C789.297 627.063 790.217 628.463 791.017 630.277C792.083 632.917 792.763 634.49 793.057 634.997H789.377C788.977 634.33 788.377 633.01 787.577 631.037C786.91 629.437 786.083 628.277 785.097 627.557C784.11 626.837 782.817 626.477 781.217 626.477H780.537V634.997H777.017V615.637ZM794.437 622.917H804.317V625.477H794.437V622.917ZM823.903 634.997H807.303V632.837L810.063 630.157C813.69 626.717 816.21 624.05 817.623 622.157C819.036 620.263 819.743 618.397 819.743 616.557C819.743 615.063 819.343 613.85 818.543 612.917C817.743 611.957 816.436 611.477 814.623 611.477C812.703 611.477 810.863 612.21 809.103 613.677L807.983 611.197C810.063 609.437 812.516 608.557 815.343 608.557C817.93 608.557 819.89 609.303 821.223 610.797C822.583 612.29 823.263 614.063 823.263 616.117C823.263 618.33 822.556 620.463 821.143 622.517C819.73 624.543 817.45 627.063 814.303 630.077L812.263 631.997V632.077H823.903V634.997ZM835.451 634.997V612.277H835.371L830.851 614.717L830.171 612.037L835.851 608.997H838.851V634.997H835.451ZM848.199 633.677L849.159 630.997C850.945 632.063 852.865 632.597 854.919 632.597C856.972 632.597 858.465 632.09 859.399 631.077C860.359 630.037 860.825 628.863 860.799 627.557C860.772 625.85 860.105 624.557 858.799 623.677C857.519 622.797 855.945 622.357 854.079 622.357H852.119V619.717H854.079C855.545 619.717 856.879 619.343 858.079 618.597C859.279 617.823 859.879 616.73 859.879 615.317C859.879 614.197 859.492 613.263 858.719 612.517C857.972 611.77 856.839 611.397 855.319 611.397C853.452 611.397 851.719 611.97 850.119 613.117L849.159 610.557C851.025 609.223 853.305 608.557 855.999 608.557C858.399 608.557 860.239 609.157 861.519 610.357C862.799 611.557 863.439 613.023 863.439 614.757C863.439 616.143 863.025 617.383 862.199 618.477C861.372 619.543 860.185 620.357 858.639 620.917V620.997C860.319 621.317 861.705 622.063 862.799 623.237C863.892 624.41 864.439 625.877 864.439 627.637C864.439 629.823 863.599 631.677 861.919 633.197C860.239 634.69 857.919 635.437 854.959 635.437C852.239 635.437 849.985 634.85 848.199 633.677Z"
                fill="white" />
        </a>
        <a>
            <mask id="path-11-outside-2_690_1935" maskUnits="userSpaceOnUse" x="341.199" y="0"
                width="777" height="493" fill="black">
                <rect fill="white" x="341.199" width="777" height="493" />
                <path d="M352.199 11H1107V481.24H352.199V11Z" />
            </mask>
            <path d="M352.199 11H1107V481.24H352.199V11Z" fill="#B52491" />
            <path
                d="M352.199 11V0.013093H341.212V11H352.199ZM1107 11H1117.99V0.013093H1107V11ZM1107 481.24V492.227H1117.99V481.24H1107ZM352.199 481.24H341.212V492.227H352.199V481.24ZM352.199 21.9869H1107V0.013093H352.199V21.9869ZM1096.01 11V481.24H1117.99V11H1096.01ZM1107 470.253H352.199V492.227H1107V470.253ZM363.186 481.24V11H341.212V481.24H363.186Z"
                fill="black" mask="url(#path-11-outside-2_690_1935)" />
            <path
                d="M633.088 243.181H636.608V251.581H637.408L644.688 243.181H648.968L640.528 251.901C642.048 252.061 643.315 252.634 644.328 253.621C645.368 254.607 646.288 256.007 647.088 257.821C648.155 260.461 648.835 262.034 649.128 262.541H645.448C645.048 261.874 644.448 260.554 643.648 258.581C642.981 256.981 642.155 255.821 641.168 255.101C640.181 254.381 638.888 254.021 637.288 254.021H636.608V262.541H633.088V243.181ZM650.509 250.461H660.389V253.021H650.509V250.461ZM679.974 262.541H663.374V260.381L666.134 257.701C669.761 254.261 672.281 251.594 673.694 249.701C675.108 247.807 675.814 245.941 675.814 244.101C675.814 242.607 675.414 241.394 674.614 240.461C673.814 239.501 672.508 239.021 670.694 239.021C668.774 239.021 666.934 239.754 665.174 241.221L664.054 238.741C666.134 236.981 668.588 236.101 671.414 236.101C674.001 236.101 675.961 236.847 677.294 238.341C678.654 239.834 679.334 241.607 679.334 243.661C679.334 245.874 678.628 248.007 677.214 250.061C675.801 252.087 673.521 254.607 670.374 257.621L668.334 259.541V259.621H679.974V262.541ZM691.522 262.541V239.821H691.442L686.922 242.261L686.242 239.581L691.922 236.541H694.922V262.541H691.522ZM720.99 262.541H704.39V260.381L707.15 257.701C710.777 254.261 713.297 251.594 714.71 249.701C716.123 247.807 716.83 245.941 716.83 244.101C716.83 242.607 716.43 241.394 715.63 240.461C714.83 239.501 713.523 239.021 711.71 239.021C709.79 239.021 707.95 239.754 706.19 241.221L705.07 238.741C707.15 236.981 709.603 236.101 712.43 236.101C715.017 236.101 716.977 236.847 718.31 238.341C719.67 239.834 720.35 241.607 720.35 243.661C720.35 245.874 719.643 248.007 718.23 250.061C716.817 252.087 714.537 254.607 711.39 257.621L709.35 259.541V259.621H720.99V262.541Z"
                fill="white" />
        </a>
    </g>
</svg>