<svg width="46" height="47" viewBox="0 0 46 47" fill="none" xmlns="http://www.w3.org/2000/svg">
<path d="M30.217 24.8516C32.0835 23.3831 33.4459 21.3693 34.1146 19.0904C34.7834 16.8116 34.7252 14.3809 33.9481 12.1367C33.1711 9.89244 31.7139 7.94618 29.7793 6.56867C27.8446 5.19117 25.5287 4.45093 23.1537 4.45093C20.7788 4.45093 18.4629 5.19117 16.5282 6.56867C14.5936 7.94618 13.1364 9.89244 12.3593 12.1367C11.5823 14.3809 11.5241 16.8116 12.1928 19.0904C12.8616 21.3693 14.224 23.3831 16.0905 24.8516C12.8922 26.1329 10.1015 28.2582 8.01605 31.0008C5.93059 33.7435 4.62848 37.0006 4.24854 40.425C4.22104 40.6751 4.24305 40.928 4.31332 41.1696C4.38359 41.4111 4.50074 41.6364 4.65808 41.8326C4.97585 42.2289 5.43804 42.4828 5.94297 42.5383C6.4479 42.5939 6.95421 42.4465 7.35053 42.1288C7.74684 41.811 8.00069 41.3488 8.05624 40.8439C8.47429 37.1222 10.2489 33.6851 13.0409 31.1891C15.833 28.6931 19.4468 27.3133 23.1918 27.3133C26.9369 27.3133 30.5506 28.6931 33.3427 31.1891C36.1348 33.6851 37.9093 37.1222 38.3274 40.8439C38.3791 41.3117 38.6024 41.7438 38.954 42.0567C39.3055 42.3696 39.7606 42.5412 40.2312 42.5383H40.4407C40.9397 42.4809 41.3959 42.2285 41.7097 41.8363C42.0235 41.444 42.1696 40.9436 42.116 40.4441C41.7343 37.0099 40.4252 33.7444 38.329 30.9976C36.2328 28.2508 33.4286 26.1262 30.217 24.8516ZM23.1537 23.4999C21.6476 23.4999 20.1752 23.0532 18.9229 22.2164C17.6705 21.3796 16.6944 20.1903 16.118 18.7987C15.5416 17.4072 15.3908 15.876 15.6847 14.3988C15.9785 12.9215 16.7038 11.5646 17.7688 10.4996C18.8339 9.43455 20.1908 8.70925 21.668 8.41541C23.1453 8.12157 24.6765 8.27238 26.068 8.84877C27.4595 9.42516 28.6489 10.4012 29.4857 11.6536C30.3225 12.9059 30.7691 14.3783 30.7691 15.8845C30.7691 17.9042 29.9668 19.8412 28.5386 21.2694C27.1105 22.6975 25.1735 23.4999 23.1537 23.4999Z" fill="black"/>
</svg>
